# AST/ASF file generated using VICON BodyLanguage
# -----------------------------------------------
:version 1.10
:name VICON
:units
  mass 1.0
  length 0.45
  angle deg
:documentation
   .ast/.asf automatically generated from VICON data using
   VICON BodyBuilder and BodyLanguage model FoxedUp or BRILLIANT.MOD
:root
   order TX TY TZ RX RY RZ
   axis XYZ
   position 0 0 0  
   orientation 0 0 0 
:bonedata
  begin
     id 1 
     name lhipjoint
     direction 0.570549 -0.739093 0.358072 
     length 2.41801 
     axis 0 0 0  XYZ
  end
  begin
     id 2 
     name lfemur
     direction 0.34202 -0.939693 0  
     length 7.44434  
     axis 0 0 20  XYZ
    dof rx ry rz
    limits (-160.0 20.0)
           (-70.0 70.0)
           (-60.0 70.0)
  end
  begin
     id 3 
     name ltibia
     direction 0.34202 -0.939693 0   
     length 7.60047   
     axis 0 0 20   XYZ
    dof rx
    limits (-10.0 170.0)
  end
  begin
     id 4 
     name lfoot
     direction 0.0909041 -0.249757 0.964032   
     length 2.03437   
     axis -90 7.62852e-016 20   XYZ
    dof rx rz
    limits (-45.0 90.0)
           (-70.0 20.0)
  end
  begin
     id 5 
     name ltoes
     direction 1.53547e-011 -4.2174e-011 1   
     length 1.02054   
     axis -90 7.62852e-016 20   XYZ
    dof rx
    limits (-90.0 20.0)
  end
  begin
     id 6 
     name rhipjoint
     direction -0.558096 -0.746754 0.361784   
     length 2.3932  
     axis 0 0 0  XYZ 
  end
  begin
     id 7 
     name rfemur
     direction -0.34202 -0.939693 0   
     length 7.3886   
     axis 0 0 -20   XYZ
    dof rx ry rz
    limits (-160.0 20.0)
           (-70.0 70.0)
           (-70.0 60.0)
  end
  begin
     id 8 
     name rtibia
     direction -0.34202 -0.939693 0   
     length 7.4839   
     axis 0 0 -20   XYZ
    dof rx
    limits (-10.0 170.0)
 end
 begin
     id 9 
     name rfoot
     direction -0.114619 -0.314914 0.942174   
     length 2.25127  
     axis -90 -7.62852e-016 -20   XYZ
    dof rx rz
    limits (-45.0 90.0)
           (-20.0 70.0)
  end
  begin
     id 10 
     name rtoes
     direction -1.53518e-011 -4.21881e-011 1   
     length 1.11821   
     axis -90 -7.62852e-016 -20   XYZ
    dof rx
    limits (-90.0 20.0)
  end
  begin
     id 11 
     name lowerback
     direction -0.00902269 0.996426 -0.0839821   
     length 2.25052   
     axis 0 0 0   XYZ
    dof rx ry rz
    limits (-20.0 45.0)
           (-30.0 30.0)
           (-30.0 30.0)
  end
  begin
     id 12 
     name upperback
     direction 0.0370973 0.999169 -0.0168941   
     length 2.24876   
     axis 0 0 0   XYZ
    dof rx ry rz
    limits (-20.0 45.0)
           (-30.0 30.0)
           (-30.0 30.0)
  end
  begin
     id 13 
     name thorax
     direction 0.0402726 0.998931 0.0227027   
     length 2.26408   
     axis 0 0 0   XYZ
    dof rx ry rz
    limits (-20.0 45.0)
           (-30.0 30.0)
           (-30.0 30.0)
  end
  begin
     id 14 
     name lowerneck
     direction -0.0733697 0.98508 0.155675   
     length 1.58204   
     axis 0 0 0   XYZ
    dof rx ry rz
    limits (-20.0 45.0)
           (-30.0 30.0)
           (-30.0 30.0)
  end
  begin
     id 15 
     name upperneck
     direction 0.0426554 0.993501 -0.105526   
     length 1.61222   
     axis 0 0 0   XYZ
    dof rx ry rz
    limits (-20.0 45.0)
           (-30.0 30.0)
           (-30.0 30.0)
  end
  begin
     id 16
     name head
     direction 0.020792 0.998384 -0.0528868  
     length 1.61527  
     axis 0 0 0   XYZ
    dof rx ry rz
    limits (-20.0 45.0)
           (-30.0 30.0)
           (-30.0 30.0)
  end
  begin
     id 17 
     name lclavicle
     direction 0.967109 0.155462 -0.201325  
     length 3.59357  
     axis 0 0 0   XYZ
    dof ry rz
    limits (-20.0 10.0)
           (0.0 20.0)
  end
  begin
     id 18 
     name lhumerus
     direction 1 -4.48968e-011 2.38195e-027   
     length 5.38154   
     axis 180 -30 -90   XYZ
    dof rx ry rz
    limits (-60.0 90.0)
           (-90.0 90.0)
           (-90.0 90.0)
  end
  begin
     id 19
     name lradius
     direction 1 -4.48961e-011 4.85371e-027   
     length 3.33312   
     axis 180 -30 -90   XYZ
    dof rx
    limits (-10.0 170.0)
  end
  begin
     id 20
     name lwrist
     direction 1 -4.48961e-011 4.76515e-027   
     length 1.66656   
     axis -3.27502e-015 90 90   XYZ
    dof ry
    limits (-180.0 0.0)
 end
  begin
     id 21 
     name lhand
     direction 1 -4.48951e-011 9.53074e-027   
     length 0.710789   
     axis -6.08098e-015 90 90   XYZ
    dof rx rz
    limits (-90.0 90.0)
           (-45.0 45.0)
  end
  begin
     id 22 
     name lfingers
     direction 1 -4.48953e-011 1.90613e-026   
     length 0.573057   
     axis -1.21619e-014 90 90   XYZ
    dof rx
    limits (0.0 90.0)
  end
  begin
     id 23
     name lthumb
     direction 0.707107 -6.34973e-011 0.707107   
     length 0.822798   
     axis -90 45 -9.86923e-015   XYZ
    dof rx rz
    limits (-45.0 45.0)
           (-45.0 45.0)
  end
  begin
     id 24 
     name rclavicle
     direction -0.9585 0.265289 -0.104398   
     length 3.42039  
     axis 0 0 0   XYZ 
    dof ry rz
    limits (-10.0 20.0)
           (-20.0 0.0)
  end
  begin
     id 25 
     name rhumerus
     direction -1 -4.48977e-011 2.21478e-027  
     length 5.16954   
     axis 180 30 90   XYZ
    dof rx ry rz
    limits (-90.0 60.0)
           (-90.0 90.0)
           (-90.0 90.0)
  end
  begin
     id 26 
     name rradius
     direction -1 -4.48967e-011 5.63677e-027   
     length 3.38287   
     axis 180 30 90   XYZ
    dof rx
    limits (-10.0 170.0)
  end
  begin
     id 27 
     name rwrist
     direction -1 -4.48967e-011 4.76501e-027   
     length 1.69144   
     axis -3.27502e-015 -90 -90   XYZ
    dof ry
    limits (-180.0 0.0)
  end
  begin
     id 28
     name rhand
     direction -1 -4.48902e-011 9.53292e-027   
     length 0.817967   
     axis -6.08098e-015 -90 -90   XYZ
    dof rx rz
    limits (-90.0 90.0)
           (-45.0 45.0)
  end
  begin
     id 29
     name rfingers
     direction -1 -4.49012e-011 1.90561e-026   
     length 0.659466   
     axis -1.21619e-014 -90 -90   XYZ
    dof rx
    limits (0.0 90.0)
  end
  begin
     id 30
     name rthumb
     direction -0.707107 -6.34944e-011 0.707107   
     length 0.946865   
     axis -90 -45 9.86923e-015   XYZ
    dof rx rz
    limits (-45.0 45.0)
           (-45.0 45.0)
  end
:hierarchy
  begin
    root lhipjoint rhipjoint lowerback
    lhipjoint lfemur
    lfemur ltibia
    ltibia lfoot
    lfoot ltoes
    rhipjoint rfemur
    rfemur rtibia
    rtibia rfoot
    rfoot rtoes
    lowerback upperback
    upperback thorax
    thorax lowerneck lclavicle rclavicle
    lowerneck upperneck
    upperneck head
    lclavicle lhumerus
    lhumerus lradius
    lradius lwrist
    lwrist lhand lthumb
    lhand lfingers
    rclavicle rhumerus
    rhumerus rradius
    rradius rwrist
    rwrist rhand rthumb
    rhand rfingers
  end

#!OML:ASF F:\twosubjects\two\wednesday\Session 1\Justin1.ASF
:FULLY-SPECIFIED
:DEGREES
406
root 2.03603 15.8962 -21.8756 -3.0565 78.6446 -379.237
lowerback 19.416 0.503166 -0.651109
upperback 1.22593 0.299199 -3.41884
thorax -9.55554 0.137847 -3.4603
lowerneck -6.5877 -17.7271 -22.3929
upperneck -7.40144 -22.6193 27.9494
head 5.01831 -10.7299 9.86383
rclavicle -1.82882e-014 1.90833e-014
rhumerus 62.0803 -71.0287 -79.0799
rradius 24.5626
rwrist -46.2285
rhand 56.6355 -30.8305
rfingers 7.12502
rthumb 73.5448 -9.63886
lclavicle -1.82882e-014 1.90833e-014
lhumerus -27.3351 26.9019 14.3431
lradius 24.0246
lwrist -10.4662
lhand -6.22179 28.3144
lfingers 7.12502
lthumb 19.6191 57.3444
rfemur -24.8879 8.19635 20.5147
rtibia 52.8139
rfoot -34.1653 1.60892
rtoes 2.14721
lfemur -38.6969 2.88176 9.78181
ltibia 45.3113
lfoot -13.7084 8.15728
ltoes -35.9955
407
root 2.3816 15.8901 -22.0013 -1.47462 78.23 -377.732
lowerback 19.0796 0.163912 0.0646214
upperback 1.33724 0.0414828 -3.08922
thorax -9.2591 -0.00632337 -3.42675
lowerneck -6.7987 -17.3942 -23.4769
upperneck -7.07965 -22.1013 28.0719
head 5.16948 -10.4405 10.1609
rclavicle 1.74931e-014 1.59028e-014
rhumerus 62.4191 -70.6013 -78.4726
rradius 24.4026
rwrist -45.9554
rhand 58.5043 -29.978
rfingers 7.12502
rthumb 74.2089 -2.73909
lclavicle 1.74931e-014 1.59028e-014
lhumerus -27.5223 28.3102 14.1651
lradius 23.8742
lwrist -10.8198
lhand -5.75887 27.6481
lfingers 7.12502
lthumb 20.0641 56.6321
rfemur -23.9381 8.15489 20.0536
rtibia 53.1269
rfoot -33.5063 0.298698
rtoes -1.99429
lfemur -39.3524 3.21291 9.82313
ltibia 41.888
lfoot -12.5538 5.70836
ltoes -37.5808
408
root 2.73552 15.8879 -22.122 1.37074 77.691 -374.885
lowerback 18.9012 -0.0332407 0.444062
upperback 1.29453 -0.120972 -2.84016
thorax -9.21683 -0.0971234 -3.32472
lowerneck -7.1986 -17.4757 -23.334
upperneck -6.9138 -22.0871 27.0605
head 5.08511 -10.4075 9.78382
rclavicle -1.35174e-014 -2.38542e-015
rhumerus 62.9675 -70.3812 -78.1488
rradius 24.3807
rwrist -45.4073
rhand 59.5378 -29.4642
rfingers 7.12502
rthumb 74.4937 1.32201
lclavicle -1.35174e-014 -2.38542e-015
lhumerus -27.6526 29.6403 13.8227
lradius 23.6941
lwrist -11.8561
lhand -4.99481 26.9708
lfingers 7.12502
lthumb 20.7984 55.8761
rfemur -23.1056 8.15241 19.1235
rtibia 53.739
rfoot -32.6289 -0.383021
rtoes -6.26034
lfemur -39.6552 3.11662 9.61425
ltibia 38.4954
lfoot -10.9585 3.2367
ltoes -35.165
409
root 3.09439 15.859 -22.2417 5.1491 76.9279 -370.93
lowerback 18.7636 -0.0972792 0.671391
upperback 1.27778 -0.155426 -2.78627
thorax -9.16159 -0.122824 -3.38459
lowerneck -7.25341 -17.3298 -22.8441
upperneck -7.14617 -21.7861 26.0954
head 4.73926 -10.2768 9.48242
rclavicle 1.47101e-014 -1.90833e-014
rhumerus 62.6174 -70.4463 -77.0483
rradius 24.4512
rwrist -44.9676
rhand 60.3059 -28.9688
rfingers 7.12502
rthumb 74.6646 4.53279
lclavicle 1.47101e-014 -1.90833e-014
lhumerus -27.2742 30.3101 13.6479
lradius 23.4295
lwrist -12.4862
lhand -4.42412 26.8217
lfingers 7.12502
lthumb 21.3466 55.6659
rfemur -22.2747 9.13623 17.7649
rtibia 54.709
rfoot -31.5202 -0.964383
rtoes -9.82574
lfemur -39.6587 2.76661 8.99161
ltibia 35.2411
lfoot -8.47892 2.25598
ltoes -37.053
410
root 3.46089 15.8389 -22.3581 8.35038 75.9454 -367.465
lowerback 18.6462 -0.166288 1.10364
upperback 1.25341 -0.164032 -2.83581
thorax -9.12574 -0.147122 -3.68304
lowerneck -6.79019 -17.0052 -22.8059
upperneck -7.74889 -21.3068 25.8437
head 4.33754 -10.0901 9.55831
rclavicle -3.29983e-014 3.18055e-015
rhumerus 59.4613 -70.1586 -73.2323
rradius 24.598
rwrist -46.0097
rhand 61.6807 -29.2749
rfingers 7.12502
rthumb 74.88 9.2167
lclavicle -3.29983e-014 3.18055e-015
lhumerus -26.7009 30.2288 13.5922
lradius 23.1092
lwrist -12.6825
lhand -4.09649 27.0474
lfingers 7.12502
lthumb 21.6613 55.8557
rfemur -21.7213 10.5988 16.2539
rtibia 55.9827
rfoot -29.7697 -0.765117
rtoes -10.7404
lfemur -39.2492 1.94708 8.47108
ltibia 32.2206
lfoot -5.46616 2.20658
ltoes -40.7503
411
root 3.84064 15.8293 -22.4647 11.8217 74.5792 -363.711
lowerback 18.4032 -0.154915 1.12959
upperback 1.19131 -0.144447 -2.77692
thorax -9.05754 -0.139586 -3.63495
lowerneck -6.67659 -16.8264 -23.2357
upperneck -7.84609 -21.0126 25.5114
head 4.2156 -9.94913 9.59115
rclavicle -5.76476e-014 1.90833e-014
rhumerus 57.4195 -69.4207 -70.314
rradius 24.5803
rwrist -46.6076
rhand 63.9433 -28.7258
rfingers 7.12502
rthumb 74.9713 18.1682
lclavicle -5.76476e-014 1.90833e-014
lhumerus -26.6587 30.5064 13.2339
lradius 22.6911
lwrist -13.5224
lhand -3.78129 27.0843
lfingers 7.12502
lthumb 21.964 55.8573
rfemur -21.549 12.4015 14.3475
rtibia 57.5926
rfoot -27.2984 -0.135807
rtoes -11.1683
lfemur -38.4067 0.682674 7.88861
ltibia 29.794
lfoot -2.89474 3.13563
ltoes -41.2896
